<?xml version="1.0" encoding="utf-8"?>
<!DOCTYPE svg PUBLIC "-//W3C//DTD SVG 1.1//EN" "http://www.w3.org/Graphics/SVG/1.1/DTD/svg11.dtd">
<svg version="1.1" xmlns="http://www.w3.org/2000/svg" xmlns:xlink="http://www.w3.org/1999/xlink" x="0px" y="0px" width="96px" height="96px" viewBox="0 0 96 96">
<style type="text/css"><![CDATA[path{fill:#fff;}]]></style>
<g id="asteriks">
<path class="st1" d="M50,0l3,4l-3,1l-2-4l-2,4l-3-1l3-4h-4l1-3l4,1l-1-4h4l-1,4l4-1l1,3L50,0z"/>
<path class="st1" d="M98,49l3,4l-3,1l-2-4l-2,4l-3-1l3-4h-4l1-3l4,1l-1-4h4l-1,4l4-1l1,3L98,49z"/>
<path class="st1" d="M8,0l12,16L8,20L0,4l-8,16l-12-4L-8,0h-16l4-12l16,4l-4-16H8L4-8l16-4l4,12H8z"/>
<path class="st1" d="M8,96l12,16l-12,4l-8-16l-8,16l-12-4l12-16h-16l4-12l16,4l-4-16H8L4,88l16-4l4,12H8z"/>
<path class="st1" d="M104,0l12,16l-12,4L96,4l-8,16l-12-4L88,0H72l4-12l16,4l-4-16h16l-4,16l16-4l4,12H104z"/>
<path class="st1" d="M104,96l12,16l-12,4l-8-16l-8,16l-12-4l12-16H72l4-12l16,4l-4-16h16l-4,16l16-4l4,12H104z"/>
<path class="st1" d="M2,49l3,4l-3,1l-2-4l-2,4l-3-1l3-4h-4l1-3l4,1l-1-4h4l-1,4l4-1l1,3L2,49z"/>
<path class="st1" d="M50,96l3,4l-3,1l-2-4l-2,4l-3-1l3-4h-4l1-3l4,1l-1-4h4l-1,4l4-1l1,3H50z"/>
</g>
</svg>

