<?xml version="1.0" encoding="utf-8"?>
<!DOCTYPE svg PUBLIC "-//W3C//DTD SVG 1.1//EN" "http://www.w3.org/Graphics/SVG/1.1/DTD/svg11.dtd">
<svg version="1.1" xmlns="http://www.w3.org/2000/svg" xmlns:xlink="http://www.w3.org/1999/xlink" x="0px" y="0px" width="48px" height="48px" viewBox="0 0 48 48">
<style type="text/css"><![CDATA[polygon{fill:#fff;}]]></style>
<g>
<polygon points="20,8 24,0 28,0 24,8"/>
<polygon points="28,48 24,40 20,40 24,48"/>
<polygon points="40,0 36,8 40,8 44,0 48,0"/>
<polygon points="40,40 36,40 40,48 44,48"/>
<polygon points="4,40 4,40 8,48 12,48 8,40"/>
<polygon points="8,8 12,0 8,0 4,8 4,8"/>
<polygon points="48,20 44,28 48,36"/>
<polygon points="0,12 0,28 4,20"/>
</g>
</svg>
