<svg xmlns="http://www.w3.org/2000/svg" xmlns:xlink="http://www.w3.org/1999/xlink" width="152px" height="152px" viewBox="0 0 152 152"><style type="text/css"><![CDATA[.st1{fill:#fff}]]></style><g><path class="st1" d="M0,0v152h152V0H0z M52,2h26v16h18V6H86v4h6v4H82V2h18v20H74V6H56v12h10v-4h-6v-4h10v12H52V2z M22,100H2V82h12 v10h-4v-6H6v10h12V78H2V52h20v18H10V60h4v6h4V56H6v18h16V100z M52,130h18v12H60v-4h6v-4H56v12h18v-16h26v20H82v-12h10v4h-6v4h10 v-12H78v16H52V130z M150,78h-16v18h12V86h-4v6h-4V82h12v18h-20V74h16V56h-12v10h4v-6h4v10h-12V52h20V78z M150,48h-24v56h24v46h-46 v-24H48v24H2v-46h24V48H2V2h46v24h56V2h46V48z"/><polygon class="st1" points="112,10 142,10 142,40 120,40 120,18 134,18 134,32 128,32 128,27 130,27 130,22 124,22 124,36 138,36 138,14 116,14 116,44 146,44 146,6 108,6 108,34 112,34"/><polygon class="st1" points="6,44 36,44 36,14 14,14 14,36 28,36 28,22 22,22 22,27 24,27 24,32 18,32 18,18 32,18 32,40 10,40 10,10 40,10 40,34 44,34 44,6 6,6"/><polygon class="st1" points="146,108 116,108 116,138 138,138 138,116 124,116 124,130 130,130 130,125 128,125 128,120 134,120 134,134 120,134 120,112 142,112 142,142 112,142 112,118 108,118 108,146 146,146"/><polygon class="st1" points="40,142 10,142 10,112 32,112 32,134 18,134 18,120 24,120 24,125 22,125 22,130 28,130 28,116 14,116 14,138 36,138 36,108 6,108 6,146 44,146 44,118 40,118"/></g></svg>
