<?xml version="1.0" encoding="utf-8"?>
<!DOCTYPE svg PUBLIC "-//W3C//DTD SVG 1.1//EN" "http://www.w3.org/Graphics/SVG/1.1/DTD/svg11.dtd">
<svg xmlns="http://www.w3.org/2000/svg" xmlns:xlink="http://www.w3.org/1999/xlink" width="40px" height="40px" viewBox="0 0 40 40"><style type="text/css"><![CDATA[path{fill:#fff;}]]></style><g><path   d="M4,20c0-2.209-1.791-4-4-4h-3v8h3C2.209,24,4,22.208,4,20z"/><path d="M0,34h-1v8h7v-2C6,36.688,3.312,34,0,34z"/><path d="M7,0v-2H0v8h1C4.312,6,7,3.312,7,0z"/><path d="M20,4c2.208,0,4-1.792,4-4v-3h-8v3C16,2.208,17.791,4,20,4z"/><path d="M36,20c0,2.208,1.791,4,4,4h3v-8h-3C37.791,16,36,17.791,36,20z"/><path d="M20,36c-2.209,0-4,1.791-4,4v3h8v-3C24,37.791,22.208,36,20,36z"/><path d="M33-2v2c0,3.312,2.688,6,6,6h1v-8H33z"/><path d="M34,40v2h7v-8h-1C36.688,34,34,36.688,34,40z"/></g></svg>
