<svg xmlns="http://www.w3.org/2000/svg" xmlns:xlink="http://www.w3.org/1999/xlink" width="36px" height="36px" viewBox="0 0 36 36"><style type="text/css"><![CDATA[path{fill:#fff;}]]></style><g><path d="M4,18c0-2.209-1.791-4-4-4h-3v8h3C2.209,22,4,20.208,4,18z"/><path d="M0,30h-1v8h7v-2C6,32.688,3.312,30,0,30z"/><path d="M6,0v-2h-7v8h1C3.312,6,6,3.312,6,0z"/><path d="M18,4c2.208,0,4-1.792,4-4v-3h-8v3C14,2.208,15.791,4,18,4z"/><path d="M32,18c0,2.208,1.791,4,4,4h3v-8h-3C33.791,14,32,15.791,32,18z"/><path d="M18,32c-2.209,0-4,1.791-4,4v3h8v-3C22,33.791,20.208,32,18,32z"/><path d="M30-2v2c0,3.312,2.688,6,6,6h1v-8H30z"/><path d="M30,36v2h7v-8h-1C32.688,30,30,32.688,30,36z"/></g></svg>

